<svg xmlns="http://www.w3.org/2000/svg" width="18.836" height="18.832" viewBox="0 0 18.836 18.832">
  <g id="Vector_Smart_Object" data-name="Vector Smart Object" transform="translate(-34.982 -28.861)">
    <path id="Path_23" data-name="Path 23" d="M53.818,47.693H34.982l2.182-13.68H51.636Z" fill="#b3b3b3"/>
    <path id="Path_24" data-name="Path 24" d="M46.577,37.712a2.739,2.739,0,0,0-2.2,1.122,2.74,2.74,0,0,0-2.2-1.122,2.85,2.85,0,0,0,0,5.7,2.739,2.739,0,0,0,2.2-1.122,2.739,2.739,0,0,0,2.2,1.122,2.85,2.85,0,0,0,0-5.7Z" fill="none" stroke="#fff" stroke-miterlimit="10" stroke-width="0.931"/>
    <path id="Path_25" data-name="Path 25" d="M47.873,34.611V32.9a3.5,3.5,0,1,0-6.994,0v1.713" fill="none" stroke="#b3b3b3" stroke-miterlimit="10" stroke-width="0.885"/>
  </g>
</svg>
