<svg xmlns="http://www.w3.org/2000/svg" width="14" height="13" viewBox="0 0 14 13">
  <g id="Group_1" data-name="Group 1" transform="translate(-278.953 -54.97)">
    <path id="Path_17" data-name="Path 17" d="M289.915,64.683c-1.836-.649-2.422-1.2-2.422-2.368,0-.7.56-.474.807-1.762.1-.534.6-.009.692-1.229,0-.486-.27-.607-.27-.607s.137-.72.191-1.273c.067-.69-.411-2.473-2.959-2.473s-3.026,1.783-2.959,2.473c.054.554.191,1.273.191,1.273s-.27.121-.27.607c.095,1.22.59.694.692,1.229.246,1.288.807,1.059.807,1.762,0,1.172-.587,1.719-2.422,2.368S278.953,66,278.953,66.45V67.97h14V66.45C292.953,66,291.757,65.334,289.915,64.683Z"/>
  </g>
</svg>
