<svg xmlns="http://www.w3.org/2000/svg" width="141.001" height="141.001" viewBox="0 0 141.001 141.001">
  <g id="Shape_5_copy" data-name="Shape 5 copy" transform="translate(-528.999 -1670.999)" fill="#525252" stroke-linejoin="round">
    <path d="M670,1741.5c0,2.6-3.905,4.953-4.186,7.475-.287,2.575,3,5.735,2.434,8.216-.573,2.52-4.905,3.948-5.748,6.355-.852,2.435,1.642,6.25.532,8.551-1.119,2.319-5.661,2.741-7.024,4.907s.211,6.452-1.388,8.455-6.123,1.411-7.938,3.225-1.218,6.335-3.225,7.938-6.279.017-8.455,1.387-2.587,5.9-4.907,7.024c-2.3,1.11-6.116-1.384-8.551-.532-2.406.842-3.833,5.174-6.354,5.747-2.481.564-5.64-2.721-8.215-2.434-2.523.281-4.878,4.186-7.475,4.186s-4.953-3.905-7.475-4.186c-2.576-.287-5.734,3-8.216,2.434-2.521-.574-3.948-4.905-6.355-5.748-2.435-.852-6.25,1.643-8.551.532-2.32-1.119-2.742-5.66-4.907-7.023s-6.452.211-8.454-1.388-1.412-6.123-3.226-7.938-6.335-1.218-7.937-3.225-.018-6.279-1.388-8.455-5.9-2.587-7.023-4.907c-1.11-2.3,1.384-6.115.532-8.551-.842-2.407-5.173-3.834-5.746-6.355-.564-2.48,2.72-5.64,2.433-8.215-.281-2.523-4.186-4.878-4.186-7.475s3.9-4.953,4.186-7.475c.287-2.575-3-5.735-2.433-8.216.573-2.521,4.9-3.948,5.747-6.355.852-2.435-1.642-6.25-.531-8.551,1.119-2.32,5.66-2.742,7.023-4.908s-.211-6.452,1.389-8.454,6.123-1.412,7.937-3.226,1.219-6.335,3.226-7.937,6.279-.018,8.455-1.388,2.588-5.9,4.907-7.023c2.3-1.11,6.115,1.384,8.551.531,2.407-.842,3.834-5.173,6.354-5.746,2.481-.564,5.641,2.72,8.216,2.433,2.523-.281,4.878-4.186,7.475-4.186s4.953,3.905,7.475,4.186c2.576.287,5.735-3,8.216-2.433,2.521.573,3.948,4.9,6.355,5.747,2.435.852,6.25-1.642,8.552-.532,2.319,1.119,2.741,5.66,4.907,7.024s6.452-.211,8.455,1.388,1.412,6.123,3.225,7.938,6.334,1.219,7.937,3.226.018,6.279,1.388,8.454,5.9,2.588,7.023,4.908c1.11,2.3-1.384,6.115-.532,8.551.842,2.407,5.174,3.834,5.747,6.354.564,2.481-2.721,5.64-2.434,8.215C666.1,1736.546,670,1738.9,670,1741.5Z" stroke="none"/>
    <path d="M 599.4995727539063 1671.99853515625 C 598.5033569335938 1671.99853515625 597.3372192382813 1672.960083007813 596.20947265625 1673.89013671875 C 594.9449462890625 1674.932861328125 593.6373291015625 1676.011108398438 592.1351928710938 1676.178466796875 C 591.9924926757813 1676.194458007813 591.844970703125 1676.202514648438 591.6967163085938 1676.202514648438 C 590.302734375 1676.202514648438 588.9166259765625 1675.504760742188 587.5761108398438 1674.830078125 C 586.4586791992188 1674.267578125 585.30322265625 1673.68603515625 584.411376953125 1673.686157226563 C 584.2763671875 1673.686157226563 584.1481323242188 1673.69970703125 584.0303955078125 1673.726440429688 C 583.0679931640625 1673.945190429688 582.148193359375 1675.138549804688 581.2587280273438 1676.292602539063 C 580.2554931640625 1677.59423828125 579.2180786132813 1678.940063476563 577.7847290039063 1679.44140625 C 577.3285522460938 1679.60107421875 576.8319702148438 1679.6787109375 576.2664794921875 1679.6787109375 C 575.2237548828125 1679.6787109375 574.1227416992188 1679.408569335938 573.0579223632813 1679.147338867188 C 572.06982421875 1678.904907226563 571.136474609375 1678.675903320313 570.34423828125 1678.676025390625 C 569.9334716796875 1678.676025390625 569.6044311523438 1678.738403320313 569.3382568359375 1678.866943359375 C 568.455810546875 1679.29248046875 567.8280029296875 1680.657348632813 567.2208251953125 1681.977294921875 C 566.5321655273438 1683.474487304688 565.820068359375 1685.022583007813 564.5291748046875 1685.83544921875 C 563.44873046875 1686.515625 562.0712890625 1686.609375 560.7437133789063 1686.609375 C 560.45068359375 1686.609375 560.153564453125 1686.604614257813 559.8661499023438 1686.60009765625 C 559.586669921875 1686.595703125 559.297607421875 1686.591186523438 559.0206909179688 1686.591186523438 C 557.9070434570313 1686.591186523438 556.7904052734375 1686.660034179688 556.1655883789063 1687.158813476563 C 555.4043579101563 1687.766723632813 555.0957641601563 1689.2333984375 554.79736328125 1690.651611328125 C 554.457275390625 1692.267944335938 554.1055908203125 1693.939208984375 553.0230712890625 1695.021728515625 C 551.9405517578125 1696.104125976563 550.2693481445313 1696.455810546875 548.6531982421875 1696.795776367188 C 547.2348022460938 1697.09423828125 545.76806640625 1697.40283203125 545.1600952148438 1698.164428710938 C 544.5548095703125 1698.922119140625 544.5784301757813 1700.418090820313 544.6012573242188 1701.86474609375 C 544.6273193359375 1703.5185546875 544.654296875 1705.228759765625 543.83642578125 1706.527465820313 C 543.0235595703125 1707.818725585938 541.4752197265625 1708.530883789063 539.9778442382813 1709.219604492188 C 538.6580200195313 1709.826782226563 537.293212890625 1710.454467773438 536.8675537109375 1711.3369140625 C 536.4486083984375 1712.205078125 536.80419921875 1713.654663085938 537.1480712890625 1715.056518554688 C 537.5427856445313 1716.665771484375 537.9509887695313 1718.329833984375 537.4421997070313 1719.783447265625 C 536.9407348632813 1721.216918945313 535.5947875976563 1722.254516601563 534.293212890625 1723.2578125 C 533.1390380859375 1724.147583007813 531.9456176757813 1725.067504882813 531.7268676757813 1726.030151367188 C 531.5150146484375 1726.962280273438 532.1837158203125 1728.290893554688 532.8304443359375 1729.57568359375 C 533.5777587890625 1731.060546875 534.3505859375 1732.595825195313 534.178955078125 1734.13525390625 C 534.011474609375 1735.637084960938 532.9332885742188 1736.944580078125 531.8905639648438 1738.209106445313 C 530.9605712890625 1739.336791992188 529.9989013671875 1740.5029296875 529.9989013671875 1741.499145507813 C 529.9989013671875 1742.495483398438 530.9605712890625 1743.66162109375 531.8905029296875 1744.789428710938 C 532.9332275390625 1746.053955078125 534.011474609375 1747.361450195313 534.178955078125 1748.863525390625 C 534.3505859375 1750.402709960938 533.5777587890625 1751.938110351563 532.8303833007813 1753.422973632813 C 532.1837158203125 1754.707763671875 531.5150146484375 1756.036254882813 531.7269287109375 1756.968139648438 C 531.9456176757813 1757.9306640625 533.1390991210938 1758.850708007813 534.2932739257813 1759.740356445313 C 535.5947875976563 1760.74365234375 536.9405517578125 1761.781127929688 537.4418334960938 1763.214233398438 C 537.95068359375 1764.668334960938 537.54248046875 1766.332397460938 537.1476440429688 1767.941650390625 C 536.8037719726563 1769.34326171875 536.4481811523438 1770.792724609375 536.8670043945313 1771.660888671875 C 537.2926025390625 1772.543212890625 538.6574096679688 1773.170776367188 539.977294921875 1773.77783203125 C 541.474609375 1774.466430664063 543.0228881835938 1775.178466796875 543.8357543945313 1776.469482421875 C 544.6536254882813 1777.768432617188 544.6265869140625 1779.478637695313 544.6005249023438 1781.132568359375 C 544.5776977539063 1782.579345703125 544.5540771484375 1784.075317382813 545.1592407226563 1784.833251953125 C 545.7671508789063 1785.594604492188 547.2339477539063 1785.903198242188 548.6524047851563 1786.201538085938 C 550.2684936523438 1786.54150390625 551.9395751953125 1786.89306640625 553.0221557617188 1787.975463867188 C 554.1046142578125 1789.05810546875 554.4562377929688 1790.729370117188 554.7962646484375 1792.345703125 C 555.0946655273438 1793.76416015625 555.4032592773438 1795.230834960938 556.1647338867188 1795.8388671875 C 556.7894287109375 1796.337646484375 557.9054565429688 1796.406494140625 559.0183715820313 1796.406494140625 C 559.2958984375 1796.406494140625 559.58544921875 1796.40185546875 559.8654174804688 1796.3974609375 C 560.1533203125 1796.392944335938 560.4509887695313 1796.38818359375 560.7445678710938 1796.38818359375 C 562.0712280273438 1796.38818359375 563.4478149414063 1796.48193359375 564.528076171875 1797.161865234375 C 565.819091796875 1797.974853515625 566.5311889648438 1799.523193359375 567.2198486328125 1801.0205078125 C 567.826904296875 1802.340454101563 568.4546508789063 1803.705322265625 569.3372802734375 1804.130981445313 C 569.603515625 1804.259399414063 569.9326782226563 1804.321899414063 570.343505859375 1804.321899414063 C 571.1360473632813 1804.321899414063 572.069580078125 1804.092895507813 573.0579223632813 1803.850341796875 C 574.1228637695313 1803.589111328125 575.22412109375 1803.318969726563 576.2669067382813 1803.318969726563 C 576.8318481445313 1803.318969726563 577.3280639648438 1803.396362304688 577.7841796875 1803.555908203125 C 579.217529296875 1804.0576171875 580.2550048828125 1805.403686523438 581.2583618164063 1806.705444335938 C 582.1480712890625 1807.85986328125 583.0680541992188 1809.053466796875 584.0302734375 1809.2724609375 C 584.1497192382813 1809.299560546875 584.2742919921875 1809.312744140625 584.4111328125 1809.312744140625 C 585.3030395507813 1809.312744140625 586.45849609375 1808.731079101563 587.575927734375 1808.168579101563 C 588.9165649414063 1807.49365234375 590.3029174804688 1806.795776367188 591.6970825195313 1806.795776367188 C 591.8450317382813 1806.795776367188 591.9923706054688 1806.803833007813 592.13525390625 1806.819702148438 C 593.6370849609375 1806.987182617188 594.9446411132813 1808.0654296875 596.2091674804688 1809.108154296875 C 597.3370361328125 1810.038208007813 598.5032958984375 1810.999877929688 599.4995727539063 1810.999877929688 C 600.495849609375 1810.999877929688 601.662109375 1810.038208007813 602.7899169921875 1809.108276367188 C 604.0545043945313 1808.0654296875 605.3621215820313 1806.987182617188 606.8643798828125 1806.819702148438 C 607.0069580078125 1806.803833007813 607.154296875 1806.795776367188 607.3023071289063 1806.795776367188 C 608.6963500976563 1806.795776367188 610.0825805664063 1807.49365234375 611.4231567382813 1808.168579101563 C 612.54052734375 1808.731079101563 613.6959228515625 1809.312744140625 614.5877075195313 1809.312744140625 C 614.72265625 1809.312744140625 614.8507690429688 1809.299194335938 614.968505859375 1809.2724609375 C 615.930908203125 1809.0537109375 616.850830078125 1807.860107421875 617.7404174804688 1806.705688476563 C 618.7435913085938 1805.403930664063 619.7809448242188 1804.057861328125 621.2140502929688 1803.556640625 C 621.6702270507813 1803.39697265625 622.1668090820313 1803.3193359375 622.7322998046875 1803.3193359375 C 623.7752075195313 1803.3193359375 624.87646484375 1803.589599609375 625.9414672851563 1803.850830078125 C 626.9296875 1804.093383789063 627.8630981445313 1804.322387695313 628.6553955078125 1804.322387695313 C 629.0659790039063 1804.322387695313 629.3948974609375 1804.259887695313 629.6611938476563 1804.131469726563 C 630.5435791015625 1803.705932617188 631.1712646484375 1802.341064453125 631.7782592773438 1801.02099609375 C 632.4668579101563 1799.523681640625 633.178955078125 1797.975341796875 634.4700317382813 1797.162353515625 C 635.5498046875 1796.482666015625 636.9252319335938 1796.388916015625 638.250732421875 1796.388916015625 C 638.5452270507813 1796.388916015625 638.8438720703125 1796.393676757813 639.1326904296875 1796.398315429688 C 639.4135131835938 1796.40283203125 639.7039794921875 1796.407470703125 639.9822998046875 1796.407470703125 C 641.0940551757813 1796.407470703125 642.208984375 1796.338623046875 642.8336791992188 1795.839965820313 C 643.5950317382813 1795.232055664063 643.903564453125 1793.765258789063 644.2019653320313 1792.346801757813 C 644.5419311523438 1790.730590820313 644.8934326171875 1789.059326171875 645.9759521484375 1787.976440429688 C 647.0585327148438 1786.894287109375 648.729736328125 1786.542724609375 650.345947265625 1786.202880859375 C 651.7644653320313 1785.904418945313 653.2313232421875 1785.595947265625 653.8391723632813 1784.834594726563 C 654.4444580078125 1784.076416015625 654.4207153320313 1782.580322265625 654.3978271484375 1781.133422851563 C 654.37158203125 1779.479736328125 654.344482421875 1777.769653320313 655.1621704101563 1776.470825195313 C 655.9752807617188 1775.179565429688 657.52392578125 1774.467407226563 659.0216064453125 1773.778564453125 C 660.3414916992188 1773.171508789063 661.706298828125 1772.543823242188 662.1318969726563 1771.662109375 C 662.5508422851563 1770.793579101563 662.1951293945313 1769.34375 661.85107421875 1767.941772460938 C 661.4562377929688 1766.332763671875 661.0479125976563 1764.6689453125 661.5564575195313 1763.214965820313 C 662.0580444335938 1761.781616210938 663.4041748046875 1760.744018554688 664.7059326171875 1759.740600585938 C 665.8602905273438 1758.850830078125 667.0538940429688 1757.930786132813 667.2727661132813 1756.96875 C 667.4844970703125 1756.03662109375 666.8157348632813 1754.7080078125 666.1690063476563 1753.423095703125 C 665.421630859375 1751.938232421875 664.6488037109375 1750.402954101563 664.8201904296875 1748.863525390625 C 664.9876098632813 1747.361572265625 666.0658569335938 1746.054077148438 667.1085815429688 1744.78955078125 C 668.0386352539063 1743.661743164063 669.0003051757813 1742.495483398438 669.0003051757813 1741.499145507813 C 669.0003051757813 1740.503051757813 668.0386962890625 1739.336791992188 667.1087036132813 1738.208984375 C 666.06591796875 1736.9443359375 664.9876098632813 1735.636596679688 664.8201904296875 1734.134399414063 C 664.6488037109375 1732.595336914063 665.4215698242188 1731.060180664063 666.1689453125 1729.57568359375 C 666.8157348632813 1728.290771484375 667.4844970703125 1726.962158203125 667.2728271484375 1726.0302734375 C 667.0538940429688 1725.067749023438 665.8603515625 1724.14794921875 664.7061157226563 1723.258422851563 C 663.4043579101563 1722.255126953125 662.0582275390625 1721.217651367188 661.5569458007813 1719.784301757813 C 661.048095703125 1718.330444335938 661.4564208984375 1716.66650390625 661.8512573242188 1715.057373046875 C 662.1951904296875 1713.655639648438 662.5508422851563 1712.206176757813 662.1318969726563 1711.337890625 C 661.7063598632813 1710.45556640625 660.341552734375 1709.827758789063 659.0216064453125 1709.220581054688 C 657.5242919921875 1708.53173828125 655.9759521484375 1707.819458007813 655.1633911132813 1706.528564453125 C 654.3453369140625 1705.229614257813 654.3723754882813 1703.519287109375 654.3984985351563 1701.865356445313 C 654.42138671875 1700.418823242188 654.4450073242188 1698.922973632813 653.8400268554688 1698.165283203125 C 653.2317504882813 1697.40380859375 651.76513671875 1697.09521484375 650.3467407226563 1696.796752929688 C 648.730712890625 1696.456665039063 647.0597534179688 1696.105102539063 645.97705078125 1695.022583007813 C 644.8947143554688 1693.940063476563 644.5431518554688 1692.268920898438 644.2031860351563 1690.65283203125 C 643.90478515625 1689.234375 643.59619140625 1687.767578125 642.8348999023438 1687.159545898438 C 642.2098388671875 1686.660522460938 641.0933227539063 1686.591796875 639.9799194335938 1686.591796875 C 639.7027587890625 1686.591796875 639.4136352539063 1686.596313476563 639.134033203125 1686.600708007813 C 638.8465576171875 1686.605346679688 638.5492553710938 1686.609985351563 638.2560424804688 1686.609985351563 C 636.9287109375 1686.609985351563 635.5514526367188 1686.516235351563 634.4712524414063 1685.8359375 C 633.1799926757813 1685.023071289063 632.4677734375 1683.474487304688 631.7789916992188 1681.97705078125 C 631.1719970703125 1680.6572265625 630.5443115234375 1679.29248046875 629.6624145507813 1678.866821289063 C 629.3961791992188 1678.738403320313 629.067138671875 1678.676025390625 628.6564331054688 1678.676025390625 C 627.8638916015625 1678.676025390625 626.9303588867188 1678.905029296875 625.9420166015625 1679.1474609375 C 624.8770141601563 1679.40869140625 623.7756958007813 1679.678955078125 622.7328491210938 1679.678955078125 C 622.1676635742188 1679.678955078125 621.6712036132813 1679.601318359375 621.2151489257813 1679.441772460938 C 619.7817993164063 1678.940307617188 618.744384765625 1677.594482421875 617.7411499023438 1676.29296875 C 616.8514404296875 1675.138793945313 615.9315185546875 1673.9453125 614.9689331054688 1673.726440429688 C 614.8493041992188 1673.699340820313 614.7247314453125 1673.686157226563 614.587890625 1673.686157226563 C 613.6959228515625 1673.686157226563 612.54052734375 1674.267700195313 611.4231567382813 1674.830078125 C 610.08251953125 1675.504760742188 608.6962280273438 1676.202514648438 607.3020629882813 1676.202514648438 C 607.154052734375 1676.202514648438 607.0067138671875 1676.194458007813 606.8638916015625 1676.178588867188 C 605.3619995117188 1676.011108398438 604.054443359375 1674.932861328125 602.7899169921875 1673.890258789063 C 601.662109375 1672.960205078125 600.495849609375 1671.99853515625 599.4995727539063 1671.99853515625 M 599.4995727539063 1670.99853515625 C 602.0971069335938 1670.99853515625 604.452392578125 1674.903564453125 606.9746704101563 1675.184692382813 C 607.0826416015625 1675.196655273438 607.192138671875 1675.202514648438 607.3020629882813 1675.202514648438 C 609.6062622070313 1675.202514648438 612.3200073242188 1672.686279296875 614.5878295898438 1672.686157226563 C 614.7926635742188 1672.686157226563 614.9935913085938 1672.706665039063 615.1904907226563 1672.751342773438 C 617.7114868164063 1673.324340820313 619.1384887695313 1677.65576171875 621.54541015625 1678.497924804688 C 621.9129638671875 1678.62646484375 622.3123779296875 1678.678955078125 622.7328491210938 1678.678955078125 C 624.573974609375 1678.678955078125 626.8267211914063 1677.676025390625 628.6564331054688 1677.676025390625 C 629.1773681640625 1677.676025390625 629.6638793945313 1677.75732421875 630.096923828125 1677.966186523438 C 632.416015625 1679.08544921875 632.83837890625 1683.626342773438 635.0040283203125 1684.98974609375 C 635.8543090820313 1685.525146484375 637.0254516601563 1685.609985351563 638.2560424804688 1685.609985351563 C 638.8265991210938 1685.609985351563 639.4097290039063 1685.591796875 639.9799194335938 1685.591796875 C 641.3274536132813 1685.591796875 642.601318359375 1685.693481445313 643.4588012695313 1686.378051757813 C 645.4658813476563 1687.98095703125 644.8704223632813 1692.50146484375 646.6842041015625 1694.315551757813 C 648.4984741210938 1696.129516601563 653.0181884765625 1695.534057617188 654.6213989257813 1697.541259765625 C 656.22021484375 1699.54345703125 654.6392211914063 1703.81982421875 656.0095825195313 1705.99560546875 C 657.3726806640625 1708.161254882813 661.913818359375 1708.583740234375 663.0325927734375 1710.903442382813 C 664.1427001953125 1713.204467773438 661.6486206054688 1717.018920898438 662.5007934570313 1719.453979492188 C 663.3425903320313 1721.86083984375 667.6744995117188 1723.28759765625 668.2479248046875 1725.808471679688 C 668.8115234375 1728.28955078125 665.5272827148438 1731.44873046875 665.8140258789063 1734.023681640625 C 666.09521484375 1736.546264648438 670.0003051757813 1738.90185546875 670.0003051757813 1741.499145507813 C 670.0003051757813 1744.0966796875 666.09521484375 1746.452026367188 665.8140258789063 1748.974365234375 C 665.5272827148438 1751.5498046875 668.8115234375 1754.709228515625 668.2479248046875 1757.190307617188 C 667.6744995117188 1759.710693359375 663.3425903320313 1761.138549804688 662.5003051757813 1763.545288085938 C 661.6486206054688 1765.98046875 664.1427001953125 1769.795166015625 663.0325927734375 1772.096557617188 C 661.913330078125 1774.41552734375 657.3720703125 1774.838012695313 656.0084228515625 1777.003662109375 C 654.6386108398438 1779.179565429688 656.2196044921875 1783.45556640625 654.6207275390625 1785.45849609375 C 653.0181884765625 1787.465576171875 648.497314453125 1786.869995117188 646.6829223632813 1788.683715820313 C 644.8690795898438 1790.498168945313 645.4647216796875 1795.01904296875 643.4575805664063 1796.621459960938 C 642.6009521484375 1797.305297851563 641.3282470703125 1797.407470703125 639.9822387695313 1797.407470703125 C 639.4096069335938 1797.407470703125 638.8236694335938 1797.388916015625 638.250732421875 1797.388916015625 C 637.0214233398438 1797.388916015625 635.8522338867188 1797.473876953125 635.0028076171875 1798.008666992188 C 632.8372192382813 1799.372314453125 632.4154052734375 1803.913452148438 630.0955810546875 1805.0322265625 C 629.6626586914063 1805.241088867188 629.1761474609375 1805.322387695313 628.6553955078125 1805.322387695313 C 626.8260498046875 1805.322387695313 624.5733642578125 1804.3193359375 622.7322998046875 1804.3193359375 C 622.3114013671875 1804.3193359375 621.9122924804688 1804.371704101563 621.5443725585938 1804.50048828125 C 619.1378784179688 1805.34228515625 617.7108764648438 1809.674682617188 615.1901245117188 1810.24755859375 C 614.993408203125 1810.292236328125 614.7923583984375 1810.312744140625 614.5877075195313 1810.312744140625 C 612.3200073242188 1810.312744140625 609.6062622070313 1807.795776367188 607.3023071289063 1807.795776367188 C 607.1921997070313 1807.795776367188 607.0831298828125 1807.801513671875 606.9749755859375 1807.813598632813 C 604.452392578125 1808.094848632813 602.0971069335938 1811.999877929688 599.4995727539063 1811.999877929688 C 596.902099609375 1811.999877929688 594.5466918945313 1808.094848632813 592.0244140625 1807.813598632813 C 591.9164428710938 1807.801513671875 591.8070068359375 1807.795776367188 591.6970825195313 1807.795776367188 C 589.3928833007813 1807.795776367188 586.678955078125 1810.312744140625 584.4111328125 1810.312744140625 C 584.2063598632813 1810.312744140625 584.0055541992188 1810.292236328125 583.8087158203125 1810.24755859375 C 581.2880249023438 1809.673950195313 579.8607177734375 1805.34228515625 577.4537963867188 1804.499755859375 C 577.0863647460938 1804.371215820313 576.6871948242188 1804.318969726563 576.2669067382813 1804.318969726563 C 574.4259033203125 1804.318969726563 572.1732177734375 1805.321899414063 570.343505859375 1805.321899414063 C 569.8223876953125 1805.321899414063 569.335693359375 1805.240600585938 568.9025268554688 1805.031494140625 C 566.5828857421875 1803.912841796875 566.1608276367188 1799.371826171875 563.9951782226563 1798.008056640625 C 563.145263671875 1797.473022460938 561.9745483398438 1797.38818359375 560.7445678710938 1797.38818359375 C 560.17333984375 1797.38818359375 559.58935546875 1797.406494140625 559.0184326171875 1797.406494140625 C 557.671142578125 1797.406494140625 556.3977661132813 1797.3046875 555.5407104492188 1796.620239257813 C 553.5335083007813 1795.017822265625 554.1290893554688 1790.496948242188 552.3150024414063 1788.682495117188 C 550.5009155273438 1786.868774414063 545.9802856445313 1787.464233398438 544.3778076171875 1785.457153320313 C 542.7788696289063 1783.454956054688 544.3596801757813 1779.178344726563 542.989501953125 1777.002319335938 C 541.6260986328125 1774.836791992188 537.0853271484375 1774.4150390625 535.96630859375 1772.095336914063 C 534.8563842773438 1769.794555664063 537.3502197265625 1765.979858398438 536.4979858398438 1763.544555664063 C 535.6561889648438 1761.137817382813 531.3245849609375 1759.710693359375 530.7517700195313 1757.189697265625 C 530.1878051757813 1754.709228515625 533.4722290039063 1751.549438476563 533.1851196289063 1748.974365234375 C 532.9038696289063 1746.451782226563 528.9989013671875 1744.0966796875 528.9989013671875 1741.499145507813 C 528.9989013671875 1738.90185546875 532.9038696289063 1736.546630859375 533.1851196289063 1734.0244140625 C 533.4722290039063 1731.448974609375 530.1878051757813 1728.28955078125 530.7517700195313 1725.808471679688 C 531.3245849609375 1723.28759765625 535.6561889648438 1721.8603515625 536.498291015625 1719.453247070313 C 537.3505249023438 1717.018310546875 534.856689453125 1713.203125 535.9669189453125 1710.90234375 C 537.0858764648438 1708.582641601563 541.6267700195313 1708.160522460938 542.9901733398438 1705.994750976563 C 544.3604736328125 1703.818725585938 542.7794799804688 1699.54248046875 544.3787231445313 1697.540283203125 C 545.981201171875 1695.533203125 550.5018920898438 1696.128540039063 552.3159790039063 1694.314575195313 C 554.1300048828125 1692.500610351563 553.5347900390625 1687.97998046875 555.5416259765625 1686.37744140625 C 556.3988647460938 1685.692993164063 557.6731567382813 1685.591186523438 559.0206298828125 1685.591186523438 C 559.5904541015625 1685.591186523438 560.173583984375 1685.609375 560.7437133789063 1685.609375 C 561.9747924804688 1685.609375 563.145751953125 1685.524658203125 563.9963989257813 1684.989135742188 C 566.1616821289063 1683.625854492188 566.5841064453125 1679.0849609375 568.90380859375 1677.966186523438 C 569.336669921875 1677.75732421875 569.8234252929688 1677.676025390625 570.3441162109375 1677.676025390625 C 572.17333984375 1677.67578125 574.425537109375 1678.6787109375 576.2664794921875 1678.6787109375 C 576.6873168945313 1678.6787109375 577.0865478515625 1678.626342773438 577.4544067382813 1678.49755859375 C 579.861328125 1677.65576171875 581.2880249023438 1673.324340820313 583.8087158203125 1672.751342773438 C 584.0054321289063 1672.706665039063 584.2066650390625 1672.686157226563 584.4112548828125 1672.686157226563 C 586.678955078125 1672.685913085938 589.392822265625 1675.202514648438 591.6967163085938 1675.202514648438 C 591.8069458007813 1675.202514648438 591.9161376953125 1675.19677734375 592.0244140625 1675.184692382813 C 594.5469970703125 1674.903564453125 596.902099609375 1670.99853515625 599.4995727539063 1670.99853515625 Z" stroke="none" fill="rgba(255,255,255,0.59)"/>
  </g>
</svg>
